<svg width="27" height="24" viewBox="0 0 27 24" fill="none" xmlns="http://www.w3.org/2000/svg">
<g clip-path="url(#clip0_3_59)">
<path d="M19.5229 0H16.4229C12.9229 0 10.6229 2.3 10.6229 5.9V8.6H7.52295C7.22295 8.6 7.02295 8.8 7.02295 9.1V13C7.02295 13.3 7.22295 13.5 7.52295 13.5H10.6229V23.5C10.6229 23.8 10.8229 24 11.1229 24H15.2229C15.5229 24 15.7229 23.8 15.7229 23.5V13.5H19.4229C19.7229 13.5 19.9229 13.3 19.9229 13V9.1C19.9229 8.8 19.7229 8.6 19.4229 8.6H15.7229V6.3C15.7229 5.2 16.0229 4.6 17.4229 4.6H19.5229C19.8229 4.6 20.0229 4.4 20.0229 4.1V0.5C20.0229 0.2 19.7229 0 19.5229 0Z" fill="white"/>
</g>
<defs>
<clipPath id="clip0_3_59">
<rect width="13" height="24" fill="white" transform="translate(7)"/>
</clipPath>
</defs>
</svg>
