<svg width="27" height="24" viewBox="0 0 27 24" fill="none" xmlns="http://www.w3.org/2000/svg">
<g clip-path="url(#clip0_3_52)">
<path d="M13.5 5.83789C12.2824 5.83868 11.0924 6.20042 10.0803 6.87737C9.06825 7.55432 8.27958 8.51611 7.814 9.64118C7.34841 10.7662 7.2268 12.0041 7.46453 13.1982C7.70227 14.3924 8.28868 15.4893 9.14965 16.3503C10.0106 17.2112 11.1075 17.7976 12.3017 18.0354C13.4958 18.2731 14.7337 18.1515 15.8587 17.6859C16.9838 17.2203 17.9456 16.4317 18.6225 15.4196C19.2995 14.4075 19.6612 13.2175 19.662 11.9999C19.6627 11.1905 19.5037 10.3889 19.1943 9.64102C18.8849 8.89311 18.431 8.21356 17.8587 7.64123C17.2863 7.06891 16.6068 6.61504 15.8589 6.30561C15.111 5.99617 14.3094 5.83724 13.5 5.83789ZM13.5 15.9929C12.7089 15.9929 11.9355 15.7583 11.2777 15.3188C10.6199 14.8792 10.1072 14.2545 9.80449 13.5236C9.50174 12.7927 9.42253 11.9885 9.57687 11.2125C9.73121 10.4366 10.1122 9.72388 10.6716 9.16447C11.231 8.60506 11.9437 8.22409 12.7196 8.06975C13.4956 7.91541 14.2998 7.99462 15.0307 8.29737C15.7616 8.60013 16.3864 9.11282 16.8259 9.77061C17.2654 10.4284 17.5 11.2018 17.5 11.9929C17.5 13.0538 17.0786 14.0712 16.3284 14.8213C15.5783 15.5715 14.5609 15.9929 13.5 15.9929Z" fill="white"/>
<path d="M18.448 0.0759766C16.24 -0.0240234 10.771 -0.0240234 8.56101 0.0759766C6.69365 0.0425844 4.88692 0.738944 3.52501 2.01698C1.21701 4.32498 1.51201 7.43498 1.51201 12C1.51201 16.668 1.25201 19.706 3.52501 21.979C5.84201 24.291 9.00001 23.988 13.5 23.988C18.124 23.988 19.72 23.988 21.355 23.358C23.578 22.495 25.255 20.508 25.42 16.939C25.52 14.73 25.52 9.26198 25.42 7.05198C25.22 2.83898 22.961 0.283977 18.444 0.0759766H18.448ZM21.948 20.448C20.435 21.961 18.336 21.826 13.48 21.826C8.48001 21.826 6.47501 21.9 5.01201 20.433C3.32701 18.756 3.63201 16.063 3.63201 11.98C3.63201 6.45498 3.06501 2.47998 8.61001 2.19198C9.88401 2.14698 10.259 2.13198 13.466 2.13198L13.511 2.16198C18.84 2.16198 23.021 1.60398 23.272 7.14798C23.329 8.41298 23.342 8.79298 23.342 11.995C23.342 16.937 23.435 18.954 21.948 20.448Z" fill="white"/>
<path d="M19.906 7.03376C20.7007 7.03376 21.345 6.3895 21.345 5.59476C21.345 4.80002 20.7007 4.15576 19.906 4.15576C19.1113 4.15576 18.467 4.80002 18.467 5.59476C18.467 6.3895 19.1113 7.03376 19.906 7.03376Z" fill="white"/>
</g>
<defs>
<clipPath id="clip0_3_52">
<rect width="24" height="24" fill="white" transform="translate(1.5)"/>
</clipPath>
</defs>
</svg>
