<svg width="21" height="20" viewBox="0 0 21 20" fill="none" xmlns="http://www.w3.org/2000/svg">
<g clip-path="url(#clip0_3_249)">
<path d="M10.67 0C14.1145 0 16.9079 2.83587 16.9079 6.33372V7.48538H18.1554C18.8439 7.48538 19.403 8.04444 19.403 8.73294V18.7135C19.403 19.4019 18.8439 19.961 18.1554 19.961H3.18467C2.49617 19.961 1.9371 19.4019 1.9371 18.7135V8.73294C1.9371 8.04444 2.49617 7.48538 3.18467 7.48538H4.43223V6.33372C4.43223 2.83587 7.2256 0 10.67 0ZM5.67979 6.33372V7.48538H15.6603V6.33372C15.6603 3.52943 13.4221 1.24756 10.67 1.24756C7.918 1.24756 5.67979 3.52943 5.67979 6.33372ZM18.1554 18.7135V8.73294H3.18467V18.7135H18.1554ZM13.1652 13.7232C13.1652 15.1018 12.0486 16.2183 10.67 16.2183C9.29149 16.2183 8.17492 15.1018 8.17492 13.7232C8.17492 12.3446 9.29149 11.2281 10.67 11.2281C12.0486 11.2281 13.1652 12.3446 13.1652 13.7232ZM10.67 14.9708C11.3574 14.9708 11.9176 14.4105 11.9176 13.7232C11.9176 13.0359 11.3574 12.4756 10.67 12.4756C9.98272 12.4756 9.42248 13.0359 9.42248 13.7232C9.42248 14.4105 9.98272 14.9708 10.67 14.9708Z" fill="white"/>
</g>
<defs>
<clipPath id="clip0_3_249">
<rect width="20" height="20" fill="white" transform="matrix(1 0 0 -1 0.670044 20)"/>
</clipPath>
</defs>
</svg>
