<svg width="19" height="20" viewBox="0 0 19 20" fill="none" xmlns="http://www.w3.org/2000/svg">
<path d="M9.67005 0C13.1145 0 15.9079 2.83587 15.9079 6.33372V7.48538H17.1554C17.8439 7.48538 18.403 8.04444 18.403 8.73294V18.7135C18.403 19.4019 17.8439 19.961 17.1554 19.961H2.18467C1.49617 19.961 0.937103 19.4019 0.937103 18.7135V8.73294C0.937103 8.04444 1.49617 7.48538 2.18467 7.48538H3.43223V6.33372C3.43223 2.83587 6.2256 0 9.67005 0ZM4.67979 6.33372V7.48538H14.6603V6.33372C14.6603 3.52943 12.4221 1.24756 9.67005 1.24756C6.918 1.24756 4.67979 3.52943 4.67979 6.33372ZM17.1554 18.7135V8.73294H2.18467V18.7135H17.1554ZM12.1652 13.7232C12.1652 15.1018 11.0486 16.2183 9.67005 16.2183C8.29149 16.2183 7.17492 15.1018 7.17492 13.7232C7.17492 12.3446 8.29149 11.2281 9.67005 11.2281C11.0486 11.2281 12.1652 12.3446 12.1652 13.7232ZM9.67005 14.9708C10.3574 14.9708 10.9176 14.4105 10.9176 13.7232C10.9176 13.0359 10.3574 12.4756 9.67005 12.4756C8.98272 12.4756 8.42248 13.0359 8.42248 13.7232C8.42248 14.4105 8.98272 14.9708 9.67005 14.9708Z" fill="black"/>
</svg>
